<?xml version="1.0" encoding="utf-8"?>
<!-- Generator: Adobe Illustrator 21.1.0, SVG Export Plug-In . SVG Version: 6.00 Build 0)  -->
<svg version="1.1" id="Layer_1" xmlns="http://www.w3.org/2000/svg" xmlns:xlink="http://www.w3.org/1999/xlink" x="0px" y="0px"
	 viewBox="0 0 113.9 37.3" style="enable-background:new 0 0 113.9 37.3;" xml:space="preserve">
<g>
	<path d="M15.7,18.1c-0.7-0.4-1.6-0.8-2.7-1.1c-0.9-0.3-1.7-0.5-1.9-0.6c-0.3-0.1-0.5-0.2-0.8-0.4c-0.3-0.1-0.4-0.4-0.4-0.7
		c0-0.4,0.2-0.7,0.6-0.9c0.4-0.3,0.9-0.4,1.6-0.4c1.2,0,2.3,0.6,3.5,1.7c0,0,0.1,0.1,0.1,0.1c0.1,0,0.1,0,0.1-0.1l2.9-4.6
		c0-0.1,0-0.2,0-0.2c-1.7-1.5-4-2.3-6.9-2.3c-2.6,0-4.8,0.7-6.6,2.2c-1.8,1.5-2.7,3.3-2.7,5.5c0,1.8,0.5,3,1.5,3.7
		c1,0.7,1.9,1.1,2.8,1.4c0.9,0.3,1.5,0.5,1.9,0.6c0.4,0.2,0.8,0.3,1,0.6c0.3,0.2,0.4,0.5,0.4,0.8c0,0.4-0.2,0.8-0.6,1.1
		c-0.4,0.3-0.9,0.5-1.6,0.5c-1.8,0-3.2-0.8-4.4-2.5c0,0-0.1-0.1-0.1-0.1h0c-0.1,0-0.1,0-0.1,0.1L0,27c0,0.1,0,0.2,0,0.2
		c1,1.2,2.1,2,3.2,2.5c1.2,0.5,2.7,0.7,4.5,0.7c2.8,0,5.1-0.8,7-2.3l0,0c1.9-1.5,2.8-3.5,2.9-5.8C17.6,20.4,17,19,15.7,18.1z"/>
	<path d="M52.3,0.1c0,0-0.1-0.1-0.1-0.1h-7.3c-0.1,0-0.2,0.1-0.2,0.2l-3.5,29.4c0,0.1,0,0.1,0,0.1c0,0,0.1,0.1,0.1,0.1h7.3
		c0.1,0,0.2-0.1,0.2-0.2l3.5-29.4C52.4,0.1,52.4,0.1,52.3,0.1z"/>
	<path d="M74.8,9.1c0,0-0.1-0.1-0.1-0.1h-7.3c-0.1,0-0.2,0.1-0.2,0.2l-0.2,1.9c-0.9-1.7-2.6-2.6-5.2-2.6c-2.9,0-5.3,1.2-7.4,3.6
		c-2,2.4-3.1,5.3-3.1,8.7c0,2.9,0.6,5.2,2,6.9c1.4,1.7,3.3,2.6,5.8,2.6c2.3,0,4.3-0.7,5.5-1.9l0.8-0.8l-0.6,1.8c0,0.1,0,0.1,0,0.2
		c0,0,0.1,0.1,0.1,0.1h7.3c0.1,0,0.2-0.1,0.2-0.2l2.4-20.2C74.8,9.2,74.8,9.2,74.8,9.1z M58.6,19.6c0.2-1.4,0.6-2.5,1.5-3.4
		c0.8-0.9,1.8-1.3,2.9-1.3c1.1,0,1.9,0.3,2.5,1c0.6,0.7,0.9,1.6,0.9,2.8c0,1.5-0.4,2.8-1.3,3.8l0,0c-0.8,1-1.9,1.5-3.1,1.5
		c-1.1,0-1.9-0.3-2.5-1c-0.6-0.7-0.9-1.7-0.8-2.9V19.6z"/>
	<path d="M89.6,18.1c-0.7-0.4-1.6-0.8-2.7-1.1c-1.1-0.3-1.8-0.5-1.9-0.6c-0.3-0.1-0.5-0.2-0.8-0.4c-0.3-0.1-0.4-0.4-0.4-0.7
		c0-0.4,0.2-0.7,0.6-0.9c0.4-0.3,0.9-0.4,1.6-0.4c1.2,0,2.3,0.6,3.5,1.7c0,0,0.1,0.1,0.1,0.1c0.1,0,0.1,0,0.1-0.1l2.9-4.6
		c0-0.1,0-0.2,0-0.2c-1.7-1.5-4-2.3-6.9-2.3c-2.6,0-4.8,0.7-6.6,2.2c-1.8,1.5-2.7,3.3-2.7,5.5c0,1.8,0.5,3,1.5,3.7
		c1,0.7,1.9,1.1,2.8,1.4c0.9,0.3,1.5,0.5,1.9,0.6c0.4,0.2,0.8,0.3,1,0.6c0.3,0.2,0.4,0.5,0.4,0.8c0,0.4-0.2,0.8-0.6,1.1
		c-0.4,0.3-0.9,0.5-1.6,0.5c-1.8,0-3.2-0.8-4.4-2.5c0,0-0.1-0.1-0.1-0.1h0c-0.1,0-0.1,0-0.1,0.1l-3.1,4.6c0,0.1,0,0.2,0,0.2
		c1,1.2,2.1,2,3.2,2.5c1.2,0.5,2.7,0.7,4.5,0.7c0,0,0.1,0,0.1,0c2.7,0,5.1-0.8,6.9-2.3l0,0c1.9-1.5,2.8-3.5,2.9-5.8
		C91.6,20.4,90.9,19,89.6,18.1z"/>
	<path d="M112.3,10.2c-1.1-1.1-2.6-1.6-4.5-1.6c-2,0-3.4,0.6-5.1,2.1c0,0,0,0,0,0l-1.1,1.3l0.5-2.3l1.1-9.5c0-0.1,0-0.1,0-0.1
		c0,0-0.1-0.1-0.1-0.1h-7.3c-0.1,0-0.2,0.1-0.2,0.2l-3.5,29.4c0,0.1,0,0.1,0,0.1c0,0,0.1,0.1,0.1,0.1h7.3c0.1,0,0.2-0.1,0.2-0.2
		l1.3-10.5c0.1-1,0.3-1.7,0.4-2c0.1-0.4,0.3-0.7,0.5-1c0.2-0.3,0.5-0.5,0.9-0.7c0.4-0.2,0.8-0.3,1.3-0.3c0.7,0,1.1,0.2,1.5,0.5
		c0.4,0.4,0.5,1,0.5,1.8l-1.4,12.3c0,0.1,0,0.1,0,0.1c0,0,0.1,0.1,0.1,0.1h7.3c0.1,0,0.2-0.1,0.2-0.2l1.5-12.5l0.1-2.4c0,0,0,0,0,0
		C113.9,12.7,113.3,11.2,112.3,10.2z"/>
	<path d="M39.3,11.1c-1.4-1.6-3.4-2.5-5.8-2.5c-2.2,0-3.9,0.6-5.1,1.8l-1,1l0.5-2.1c0-0.1,0-0.1,0-0.2c0,0-0.1-0.1-0.1-0.1h-7.3
		c-0.1,0-0.2,0.1-0.2,0.2l-3.3,27.8c0,0.1,0,0.1,0,0.1s0.1,0.1,0.1,0.1h7.3c0.1,0,0.2-0.1,0.2-0.2l1.1-9.6c1,1.9,2.7,2.8,5.1,2.8
		c0,0,0,0,0.1,0c2.9,0,5.4-1.2,7.4-3.6l0,0c2-2.4,3-5.4,3.1-9C41.4,14.9,40.7,12.7,39.3,11.1z M33.1,16c0.6,0.7,0.9,1.7,0.9,2.9
		c0,1.5-0.5,2.7-1.3,3.7c-0.9,1-1.9,1.5-3.1,1.5c-1.1,0-1.9-0.3-2.5-0.9c-0.6-0.6-0.9-1.7-0.9-3v0v-0.6c0.2-1.4,0.7-2.5,1.5-3.3
		c0.8-0.9,1.8-1.3,3-1.3C31.8,15,32.6,15.3,33.1,16z"/>
</g>
</svg>
